<svg width="566.93335" height="566.93335" xmlns="http://www.w3.org/2000/svg">
 <metadata id="metadata8">image/svg+xml</metadata>

 <g>
  <title>background</title>
  <rect fill="none" id="canvas_background" height="602" width="802" y="-1" x="-1"/>
 </g>
 <g>
  <title>Layer 1</title>
  <g transform="matrix(1.3333333,0,0,-1.3333333,0,566.93333) " id="g10">
   <g transform="scale(0.10000000149011612) " id="g12">
    <path fill="#ffffff" fill-rule="nonzero" id="path16" d="m2362.21,2834.65c-188.98,0 -283.47,0 -472.44,0c-330.72,0 -803.15,-283.47 -803.15,-1322.84c0,-425.19 0,-661.412 0,-661.412l2078.73,0c0,0 0,236.222 0,661.412c0,1039.37 -472.44,1322.84 -803.14,1322.84"/>
    <path fill="#ffffff" fill-rule="nonzero" id="path18" d="m2362.21,3023.63l188.97,330.7l-283.47,141.74l-94.48,-283.47l-23.62,0l-127.04,404.52l-377.96,-141.74l245.16,-451.75l472.44,0"/>
   </g>
  </g>
 </g>
</svg>